<svg fill="#000000" xmlns="http://www.w3.org/2000/svg"  viewBox="0 0 30 30" width="30px" height="30px"><path d="M 21 3 A 1.0001 1.0001 0 1 0 21 5 L 23.585938 5 L 20.474609 8.1113281 C 19.494235 7.413764 18.298332 6.9980469 17.005859 6.9980469 C 13.696859 6.9980469 11.005859 9.6890469 11.005859 12.998047 C 11.005859 15.372047 12.396344 17.424484 14.402344 18.396484 C 14.459344 18.339484 14.527125 18.297375 14.578125 18.234375 C 14.772125 17.987375 15.005859 17.571047 15.005859 16.998047 C 15.005859 16.786047 14.964391 16.583719 14.900391 16.386719 C 13.767391 15.679719 13.005859 14.430047 13.005859 12.998047 C 13.005859 10.792047 14.799859 8.9980469 17.005859 8.9980469 C 19.211859 8.9980469 21.005859 10.792047 21.005859 12.998047 C 21.005859 13.582047 20.872484 14.133766 20.646484 14.634766 C 20.880484 15.391766 21.005859 16.186047 21.005859 16.998047 C 21.005859 17.158047 20.995328 17.317562 20.986328 17.476562 C 22.222328 16.376562 23.005859 14.779047 23.005859 12.998047 C 23.005859 11.702778 22.588989 10.506941 21.888672 9.5253906 L 25 6.4140625 L 25 9 A 1.0001 1.0001 0 1 0 27 9 L 27 3 L 21 3 z M 15.603516 11.601562 C 15.546516 11.658563 15.476781 11.700672 15.425781 11.763672 C 15.231781 12.011672 15 12.427 15 13 C 15 13.212 15.041469 13.416281 15.105469 13.613281 C 16.238469 14.320281 17 15.568 17 17 C 17 19.206 15.206 21 13 21 C 10.794 21 9 19.206 9 17 C 9 16.416 9.133375 15.864281 9.359375 15.363281 C 9.125375 14.606281 9 13.812 9 13 C 9 12.84 9.0105312 12.680484 9.0195312 12.521484 C 7.7835313 13.621484 7 15.219 7 17 C 7 18.294015 7.4141991 19.491632 8.1132812 20.472656 L 6 22.585938 L 4.7070312 21.292969 A 1.0001 1.0001 0 0 0 3.9902344 20.990234 A 1.0001 1.0001 0 0 0 3.2929688 22.707031 L 4.5859375 24 L 3.2929688 25.292969 A 1.0001 1.0001 0 1 0 4.7070312 26.707031 L 6 25.414062 L 7.2929688 26.707031 A 1.0001 1.0001 0 1 0 8.7070312 25.292969 L 7.4140625 24 L 9.5273438 21.886719 C 10.508368 22.585801 11.705985 23 13 23 C 16.309 23 19 20.309 19 17 C 19 14.625 17.610516 12.573563 15.603516 11.601562 z"/></svg>