<svg fill="#000000" xmlns="http://www.w3.org/2000/svg"  viewBox="0 0 24 24" width="24px" height="24px"><path d="M 6 3 L 6 11 L 8 11 L 8 9 L 9 9 L 9 7 L 8 7 L 8 5 L 10 5 L 10 7 L 12 7 L 12 5 L 14 5 L 14 7 L 16 7 L 16 3 L 6 3 z M 11 9 L 11 21 L 13 21 L 13 19 L 15 19 L 15 21 L 17 21 L 17 19 L 19 19 L 19 21 L 21 21 L 21 9 L 11 9 z M 13 11 L 15 11 L 15 13 L 13 13 L 13 11 z M 17 11 L 19 11 L 19 13 L 17 13 L 17 11 z M 3 13 L 3 21 L 5 21 L 5 19 L 7 19 L 7 21 L 9 21 L 9 13 L 3 13 z M 5 15 L 7 15 L 7 17 L 5 17 L 5 15 z M 13 15 L 15 15 L 15 17 L 13 17 L 13 15 z M 17 15 L 19 15 L 19 17 L 17 17 L 17 15 z"/></svg>