<?xml version="1.0"?><svg fill="#000000" xmlns="http://www.w3.org/2000/svg"  viewBox="0 0 30 30" width="30px" height="30px">    <path d="M 15 2 A 1 1 0 0 0 14.322266 2.2675781 A 1 1 0 0 0 14.300781 2.2851562 L 3.3925781 11.207031 A 1 1 0 0 0 3.3554688 11.236328 L 3.3183594 11.267578 L 3.3183594 11.269531 A 1 1 0 0 0 3 12 A 1 1 0 0 0 4 13 L 5 13 L 5 24 C 5 25.105 5.895 26 7 26 L 23 26 C 24.105 26 25 25.105 25 24 L 25 13 L 26 13 A 1 1 0 0 0 27 12 A 1 1 0 0 0 26.681641 11.269531 A 1 1 0 0 0 26.681641 11.267578 L 26.666016 11.255859 A 1 1 0 0 0 26.597656 11.199219 L 25 9.8925781 L 25 6 C 25 5.448 24.552 5 24 5 L 23 5 C 22.448 5 22 5.448 22 6 L 22 7.4394531 L 15.691406 2.2792969 L 15.677734 2.2675781 A 1 1 0 0 0 15 2 z M 8.046875 15 L 12.644531 15 L 12.644531 15.96875 L 9.8300781 19.693359 L 9.8300781 19.773438 L 12.732422 19.773438 L 12.732422 21 L 8 21 L 8 20.03125 L 10.814453 16.304688 L 10.814453 16.226562 L 8.046875 16.226562 L 8.046875 15 z M 14.236328 15 L 15.763672 15 L 15.763672 21 L 14.236328 21 L 14.236328 15 z M 18 15 L 20.628906 15 C 21.917906 15 22.789062 15.838906 22.789062 17.128906 C 22.789062 18.404906 21.871109 19.240234 20.537109 19.240234 L 19.527344 19.240234 L 19.527344 21 L 18 21 L 18 15 z M 19.525391 16.171875 L 19.525391 18.089844 L 20.216797 18.089844 C 20.865797 18.089844 21.246094 17.755812 21.246094 17.132812 C 21.247094 16.500812 20.868609 16.171875 20.224609 16.171875 L 19.525391 16.171875 z"/></svg>